<svg xmlns="http://www.w3.org/2000/svg" viewBox="0 0 48 48" fill="#fff"><path d="M42.1 9.8L26.9.8c-1.8-1.1-4-1.1-5.8 0L6 9.8c-1.9 1.1-3 3.1-3 5.2v18c0 2.1 1.1 4.1 2.9 5.2l15.2 9c1.8 1.1 4 1.1 5.8 0l15.2-9c1.8-1.1 2.9-3.1 2.9-5.2V15c0-2.1-1.1-4.1-2.9-5.2zM30.4 37.9v1.3c0 .2-.1.3-.2.4l-.8.4c-.1.1-.2 0-.2-.2v-1.3c-.5.3-1.2.3-1.7.2-.1-.1-.1-.2-.1-.3l.3-1.2c0-.1.1-.2.2-.3l.1-.1h.1c.5.1 1.1.1 1.6-.2.7-.3 1.2-1 1.2-1.8 0-.7-.4-.9-1.2-.9-1.1 0-2.1-.2-2.1-1.8 0-1.4.7-2.7 1.8-3.6v-1.3c0-.2.1-.3.2-.4l.7-.5c.1-.1.2 0 .2.2v1.3c.5-.2 1-.3 1.5-.2.1.1.1.2.1.3l-.3 1.2c0 .1-.1.2-.1.2l-.1.1h-.1c-.5-.1-1 0-1.4.2-.6.3-1 .9-1.1 1.6 0 .6.3.8 1.4.8 1.4 0 2 .6 2 2-.2 1.6-.9 2.9-2 3.9zm7.9-2.2c0 .1 0 .2-.1.3l-3.8 2.3h-.1s-.1-.1 0-.1v-1c0-.1.1-.2.2-.2l3.8-2.3h.1s.1.1 0 .1l-.1.9zm2.6-22.1l-14.3 8.9c-1.8 1.1-3.1 2.2-3.1 4.4v17.7c0 1.3.5 2.1 1.3 2.4-.3 0-.5.1-.8.1-.8 0-1.7-.2-2.4-.7l-15.2-9c-1.4-1-2.3-2.7-2.3-4.4V15c0-1.8.9-3.4 2.4-4.3l15.2-9c1.5-.9 3.3-.9 4.8 0l15.2 9c1.2.8 2.1 2 2.3 3.4-.6-1-1.7-1.3-3.1-.5z" fill-rule="evenodd" clip-rule="evenodd"/></svg>