<svg version="1.1" id="prefix__Layer_1" xmlns="http://www.w3.org/2000/svg" x="0" y="0" viewBox="0 0 48 48" xml:space="preserve"><style>.prefix__st2{fill-rule:evenodd;clip-rule:evenodd;fill:#fff}</style><path d="M22.7.3c.8-.4 1.7-.4 2.5 0C29.1 2.5 40.6 9 44.5 11.1c.8.4 1.3 1.2 1.3 2.1v21.6c0 .9-.5 1.7-1.3 2.1-3.8 2.2-15.4 8.6-19.2 10.8-.8.4-1.7.4-2.5 0C18.9 45.5 7.4 39 3.5 36.9c-.8-.4-1.3-1.2-1.3-2.1V13.2c0-.9.5-1.7 1.3-2.1C7.4 9 18.9 2.5 22.7.3z" fill-rule="evenodd" clip-rule="evenodd" fill="#37474f"/><path d="M2.6 35.9c-.3-.4-.3-.8-.3-1.3V13.2c0-.9.5-1.7 1.3-2.1C7.4 8.9 18.9 2.5 22.7.3c.8-.4 1.8-.4 2.6 0C29.1 2.5 40.6 8.9 44.4 11c.3.2.5.4.8.7L2.6 35.9z" fill-rule="evenodd" clip-rule="evenodd" fill="#546e7a"/><path class="prefix__st2" d="M24 8c8.8 0 16 7.2 16 16s-7.2 16-16 16S8 32.8 8 24 15.2 8 24 8zm0 8c4.4 0 8 3.6 8 8s-3.6 8-8 8-8-3.6-8-8 3.6-8 8-8z"/><path d="M45.1 11.7c.6.6.6 1.4.6 2v21c0 .5-.1.9-.4 1.3L23.5 24l21.6-12.3z" fill-rule="evenodd" clip-rule="evenodd" fill="#455a64"/><path class="prefix__st2" d="M35.4 19.4h1.1v9.1h-1.1v-9.1zm3.5 0H40v9.1h-1.1v-9.1z"/><path class="prefix__st2" d="M33.1 25.1h9.1v1.1h-9.1v-1.1zm0-3.4h9.1v1.1h-9.1v-1.1z"/></svg>