<svg version="1.1" id="prefix__Layer_1" xmlns="http://www.w3.org/2000/svg" x="0" y="0" viewBox="0 0 48 48" xml:space="preserve"><style>.prefix__st0{fill:#00c4b3}.prefix__st2{fill:#0075c9}</style><path class="prefix__st0" d="M13.2 13.1L10.1 10v23.4c0 .5.1 1.1.3 1.6L35 43.7l6.2-2.7-28-27.9z"/><path d="M10.4 35.1s0-.1 0 0c0-.1 0 0 0 0zM41.1 41L35 43.7 10.4 35c.5 1.8 1.5 3.8 2.6 4.9l8 8h17.8l2.3-6.9z" fill="#22d3c5"/><path class="prefix__st2" d="M10.2 10L.6 24.4c-.8.8-.4 2.6.9 3.9L7 33.8l3.5 1.2c-.2-.6-.2-1.1-.3-1.6V10z"/><path class="prefix__st2" d="M35.2 10.3c-.6-.2-1.2-.3-1.7-.3H10l31 31 2.7-6.2-8.5-24.5z"/><path d="M35.1 10.2c.1.1.1.1 0 0 .1 0 .1 0 0 0zm5 2.7c-1.1-1.1-3.1-2.2-4.9-2.6l8.7 24.6-2.8 6.1 6.7-2.1V20.6l-7.7-7.7z" fill="#00a8e1"/><path class="prefix__st0" d="M34 6.8l-5.6-5.5c-1.3-1.3-3-1.7-3.9-.9L10.1 10h23.5c.5 0 1.1.1 1.6.3L34 6.8z"/></svg>