<svg version="1.1" id="prefix__Layer_1" xmlns="http://www.w3.org/2000/svg" x="0" y="0" viewBox="0 0 48 48" xml:space="preserve"><style>.prefix__st0{fill:#ffa000}</style><path class="prefix__st0" d="M29.4 17.3l-4.8 4.5-4.5-9 2.3-5.2c.6-1 1.5-1 2.1 0l4.9 9.7z"/><path d="M20.2 12.8l4.5 9-18 16.7 13.5-25.7z" fill="#f57f17"/><path d="M34.7 10.5c.9-.8 1.7-.5 2 .6l4.7 27.2-15.5 9.3c-.5.3-2 .4-2 .4s-1.3-.2-1.8-.4L6.7 38.5l28-28z" fill="#ffca28"/><path class="prefix__st0" d="M20.2 12.8L6.7 38.5l6-37.6c.2-1.2.9-1.3 1.5-.3l6 12.2z"/></svg>