<svg xmlns="http://www.w3.org/2000/svg" xmlns:xlink="http://www.w3.org/1999/xlink" viewBox="0 0 48 48"><g transform="matrix(.06162 0 0 .06162 -1.43 -1.275)"><defs><path id="prefix__a" d="M727.3 380.2L517.6 590l209.7 209.8H487.7L277.9 590l209.8-209.8h239.6zM487.7 20.7L98.2 410.2 218 530 727.3 20.7H487.7z"/></defs><clipPath id="prefix__b"><use xlink:href="#prefix__a" overflow="visible"/></clipPath><g clip-path="url(#prefix__b)"><path d="M278 590l119.8 119.9 329.6-329.6H487.7L278 590z" fill="#39cefd"/></g><defs><path id="prefix__c" d="M727.3 380.2L517.6 590l209.7 209.8H487.7L277.9 590l209.8-209.8h239.6zM487.7 20.7L98.2 410.2 218 530 727.3 20.7H487.7z"/></defs><clipPath id="prefix__d"><use xlink:href="#prefix__c" overflow="visible"/></clipPath><path d="M487.7 20.7h239.6L218 530 98.2 410.2 487.7 20.7z" clip-path="url(#prefix__d)" fill="#39cefd"/><defs><path id="prefix__e" d="M727.3 380.2L517.6 590l209.7 209.8H487.7L277.9 590l209.8-209.8h239.6zM487.7 20.7L98.2 410.2 218 530 727.3 20.7H487.7z"/></defs><clipPath id="prefix__f"><use xlink:href="#prefix__e" overflow="visible"/></clipPath><path d="M397.7 709.8l89.9 89.9h239.6L517.6 590 397.7 709.8z" clip-path="url(#prefix__f)" fill="#03569b"/><g><defs><path id="prefix__g" d="M727.3 380.2L517.6 590l209.7 209.8H487.7L277.9 590l209.8-209.8h239.6zM487.7 20.7L98.2 410.2 218 530 727.3 20.7H487.7z"/></defs><clipPath id="prefix__h"><use xlink:href="#prefix__g" overflow="visible"/></clipPath><linearGradient id="prefix__i" gradientUnits="userSpaceOnUse" x1="74525.273" y1="-109226.586" x2="74614.539" y2="-109137.328" gradientTransform="matrix(.06162 0 0 -.06162 -4159.17 -5997.071)"><stop offset="0" stop-color="#1a237e" stop-opacity=".4"/><stop offset="1" stop-color="#1a237e" stop-opacity="0"/></linearGradient><path d="M575.5 648.2L517.6 590 397.7 709.8l177.8-61.6z" clip-path="url(#prefix__h)" fill="url(#prefix__i)"/></g><g><defs><path id="prefix__j" d="M727.3 380.2L517.6 590l209.7 209.8H487.7L277.9 590l209.8-209.8h239.6zM487.7 20.7L98.2 410.2 218 530 727.3 20.7H487.7z"/></defs><clipPath id="prefix__k"><use xlink:href="#prefix__j" overflow="visible"/></clipPath><g clip-path="url(#prefix__k)"><path d="M277.9 589.9L397.8 470l119.9 119.9-119.9 119.9-119.9-119.9z" fill="#16b9fd"/></g></g><radialGradient id="prefix__l" cx="408387.938" cy="470734.313" r="3812.197" gradientTransform="matrix(.0154 0 0 .0154 -6174.847 -7177.278)" gradientUnits="userSpaceOnUse"><stop offset="0" stop-color="#fff" stop-opacity=".1"/><stop offset="1" stop-color="#fff" stop-opacity="0"/></radialGradient><path d="M727.3 380.2L517.6 590l209.7 209.8H487.7L277.9 590l209.8-209.8h239.6zM487.7 20.7L98.2 410.2 218 530 727.3 20.7H487.7z" fill="url(#prefix__l)"/></g></svg>