<svg xmlns="http://www.w3.org/2000/svg" viewBox="0 0 48 48"><path d="M42.9 24h-12v3.4h8.2c-1.2 5.1-5 9.4-9.9 11.1L9.4 18.9c2.1-6 7.9-10.3 14.6-10.3 5.1 0 9.8 2.6 12.7 6.5l2.6-2.2c-3.5-4.6-9-7.7-15.3-7.7-8.9 0-16.5 6.3-18.3 14.7l22.6 22.6c8.2-2 14.6-9.5 14.6-18.5zm-37.8.2c0 4.8 1.9 9.4 5.5 13s8.4 5.5 13 5.5L5.1 24.2z" fill="#fff"/><path d="M24 0C10.8 0 0 10.8 0 24s10.8 24 24 24 24-10.8 24-24S37.2 0 24 0zM10.6 37.3c-3.6-3.6-5.5-8.4-5.5-13l18.7 18.5c-4.8-.2-9.6-1.9-13.2-5.5zm17.5 5L5.7 19.8C7.5 11.4 15.1 5.1 24 5.1c6.3 0 11.8 3.1 15.3 7.7L36.7 15c-2.9-3.9-7.5-6.5-12.7-6.5-6.7 0-12.3 4.3-14.6 10.3l19.7 19.7c5-1.7 8.7-6 9.9-11.1h-8.2V24h12c.1 8.9-6.3 16.4-14.7 18.3z" fill="#639"/></svg>