<svg xmlns="http://www.w3.org/2000/svg" viewBox="0 0 48 48"><path d="M30.5 15.4H32l4.2-4.2.2-1.8c-3.3-3-7.7-4.8-12.5-4.8-8.7 0-16 5.9-18.1 13.9.5-.3 1.4-.1 1.4-.1l8.4-1.4s.4-.7.6-.7c2-2.2 4.8-3.4 7.7-3.4 2.6.1 4.9 1 6.6 2.5z" fill="#ea4335"/><path d="M42.1 18.6c-1-3.6-3-6.7-5.7-9.1l-5.9 5.9c2.4 1.9 3.9 4.8 3.9 8.1v1c2.9 0 5.2 2.3 5.2 5.2 0 2.9-2.3 5.2-5.2 5.2H24L23 36v6.3l1 1h10.4c7.5 0 13.6-6.1 13.6-13.6 0-4.6-2.3-8.7-5.9-11.1z" fill="#4285f4"/><path d="M13.6 43.3H24V35H13.6c-.7 0-1.5-.2-2.1-.5L10 35l-4.2 4.2-.4 1.4c2.3 1.7 5.2 2.7 8.2 2.7z" fill="#34a853"/><path d="M13.6 16.2C6.1 16.2 0 22.3 0 29.7c0 4.4 2.1 8.3 5.4 10.8l6-6c-1.9-.8-3.1-2.7-3.1-4.8 0-2.9 2.3-5.2 5.2-5.2 2.1 0 3.9 1.3 4.8 3.1l6-6c-2.4-3.3-6.3-5.4-10.7-5.4z" fill="#fbbc05"/></svg>