<svg xmlns="http://www.w3.org/2000/svg" viewBox="0 0 64 64"><path d="M62.8 29.2l-27.9-28c-1.6-1.6-4.2-1.6-5.8 0L23.2 7l7.4 7.4c1.7-.6 3.7-.2 5 1.2 1.3 1.3 1.8 3.3 1.2 5.1l7.1 7.1c1.7-.6 3.7-.2 5.1 1.2 1.9 1.9 1.9 5 0 6.9-1.9 1.9-5 1.9-6.9 0-1.4-1.4-1.8-3.6-1.1-5.3L34.4 24v17.4c.5.2.9.6 1.3.9 1.9 1.9 1.9 5 0 6.9s-5 1.9-6.9 0c-1.9-1.9-1.9-5 0-6.9.5-.5 1-.8 1.6-1.1V23.6c-.6-.2-1.1-.6-1.6-1.1-1.4-1.4-1.8-3.5-1.1-5.4l-7.3-7.3L1.2 29c-1.6 1.6-1.6 4.2 0 5.8l27.9 27.9c1.6 1.6 4.2 1.6 5.8 0L62.8 35c1.6-1.6 1.6-4.2 0-5.8" fill="#f03c2e"/></svg>