<svg version="1.1" id="prefix__Layer_1" xmlns="http://www.w3.org/2000/svg" xmlns:xlink="http://www.w3.org/1999/xlink" x="0" y="0" viewBox="0 0 48 48" xml:space="preserve"><style>.prefix__st0{enable-background:new}.prefix__st4{fill:#eb7077}.prefix__st5{fill:#f6a2ad}</style><g class="prefix__st0"><g class="prefix__st0"><defs><path id="prefix__SVGID_3_" d="M-161.3 36.1V11.8h393.6V36.1z"/></defs><clipPath id="prefix__SVGID_2_"><use xlink:href="#prefix__SVGID_3_" overflow="visible"/></clipPath><g clip-path="url(#prefix__SVGID_2_)"><path class="prefix__st4" d="M41 24.9h7c-2.5.8-3.2 2.5-3.7 7.1-.3 3.3-1.8 4.2-1.8 4.2-1.1 0-2.2-4.8-3.2-9.9.4-.9.9-1.3 1.7-1.4z"/><path class="prefix__st4" d="M42.5 36.1h-7c1.3 0 2.1-2.4 2.6-5.4.3-2 .7-3.5 1.2-4.5 1 5.2 2.1 9.9 3.2 9.9z"/><path class="prefix__st5" d="M39.3 26.3c-.5.9-.9 2.5-1.2 4.5-.5 3-1.4 5.4-2.6 5.4-1.3-.3-2.4-5.4-3.8-13.2 0-.3-.1-.5-.1-.7 1.1-5.6 2.2-10.4 3.3-10.4h.4c1.3.3 2.4 5.4 3.8 13.2.1.3.1.7.2 1.2z"/><path class="prefix__st4" d="M28.2 11.9h6.6c-1.1 0-2.3 4.8-3.3 10.4-1-5.3-2.1-10.4-3.3-10.4z"/><path class="prefix__st4" d="M31.5 22.3c-.1.6-.2 1.1-.3 1.7-1.6 8.7-2.5 11.9-3.7 12.2-1.3 0-2.5-5.6-3.4-11.2v-.3c0-.3.1-.5.1-.7 1.6-8.8 2.5-11.9 3.6-12.2h.4c1.2.1 2.3 5.2 3.3 10.5z"/><path class="prefix__st4" d="M27.6 36.1h-7c1.2 0 2.4-5.4 3.5-11.4v.3c1 5.5 2.2 11.1 3.5 11.1z"/><path class="prefix__st5" d="M24.1 24.8c-1.1 6-2.3 11.4-3.5 11.4-1.4-.3-2.4-5.4-3.9-13.2 0-.3-.1-.5-.1-.7 1.1-5.6 2.2-10.4 3.3-10.4h.4c1.3.3 2.3 5.3 3.8 12.9z"/><g><path class="prefix__st4" d="M13.2 11.9h6.6c-1.1 0-2.2 4.8-3.3 10.4-.9-5.3-2.1-10.4-3.3-10.4z"/><path class="prefix__st4" d="M16.6 22.3c-.1.6-.2 1.1-.3 1.7-1.6 8.7-2.5 11.9-3.7 12.2-1.3 0-.8-.2-1.6-3.7s-1.4-5.6-2.2-6.6c.2-.7.3-1.3.4-1.9 1.6-8.8 2.6-11.9 3.7-12.2h.4c1.1.1 2.3 5.2 3.3 10.5z"/><path class="prefix__st4" d="M12.6 36.1h-7c1.1 0 2.2-4.8 3.3-10.3.8 1.1 1.4 3.1 2.2 6.6.8 3.5.2 3.7 1.5 3.7z"/></g><path class="prefix__st5" d="M8.9 25.8c-1.1 5.6-2.2 10.3-3.3 10.3-.1-.2-.9 0-1.6-4.3-.6-4-1.8-6.5-3.7-6.9h7c.6 0 1.1.3 1.6.9z"/></g></g></g><g class="prefix__st0"><g class="prefix__st0"><defs><path id="prefix__SVGID_7_" d="M-161.3 36.1V11.8h393.6V36.1z"/></defs><clipPath id="prefix__SVGID_4_"><use xlink:href="#prefix__SVGID_7_" overflow="visible"/></clipPath><g clip-path="url(#prefix__SVGID_4_)"><path class="prefix__st4" d="M41 24.9h7c-2.5.8-3.2 2.5-3.7 7.1-.3 3.3-1.8 4.2-1.8 4.2-1.1 0-2.2-4.8-3.2-9.9.4-.9.9-1.3 1.7-1.4z"/><path class="prefix__st4" d="M42.5 36.1h-7c1.3 0 2.1-2.4 2.6-5.4.3-2 .7-3.5 1.2-4.5 1 5.2 2.1 9.9 3.2 9.9z"/><path class="prefix__st5" d="M39.3 26.3c-.5.9-.9 2.5-1.2 4.5-.5 3-1.4 5.4-2.6 5.4-1.3-.3-2.4-5.4-3.8-13.2 0-.3-.1-.5-.1-.7 1.1-5.6 2.2-10.4 3.3-10.4h.4c1.3.3 2.4 5.4 3.8 13.2.1.3.1.7.2 1.2z"/><path class="prefix__st4" d="M28.2 11.9h6.6c-1.1 0-2.3 4.8-3.3 10.4-1-5.3-2.1-10.4-3.3-10.4z"/><path class="prefix__st4" d="M31.5 22.3c-.1.6-.2 1.1-.3 1.7-1.6 8.7-2.5 11.9-3.7 12.2-1.3 0-2.5-5.6-3.4-11.2v-.3c0-.3.1-.5.1-.7 1.6-8.8 2.5-11.9 3.6-12.2h.4c1.2.1 2.3 5.2 3.3 10.5z"/><path class="prefix__st4" d="M27.6 36.1h-7c1.2 0 2.4-5.4 3.5-11.4v.3c1 5.5 2.2 11.1 3.5 11.1z"/><path class="prefix__st5" d="M24.1 24.8c-1.1 6-2.3 11.4-3.5 11.4-1.3-.3-2.4-5.4-3.8-13.2 0-.3-.1-.5-.1-.7 1-5.6 2.2-10.4 3.3-10.4h.4c1.2.3 2.2 5.2 3.7 12.9z"/><g><path class="prefix__st4" d="M13.2 11.9h6.6c-1.1 0-2.2 4.8-3.3 10.4-.9-5.3-2.1-10.4-3.3-10.4z"/><path class="prefix__st4" d="M16.6 22.3c-.1.6-.2 1.1-.3 1.7-1.6 8.7-2.5 11.9-3.7 12.2-1.3 0-.8-.2-1.6-3.7s-1.4-5.6-2.2-6.6c.2-.7.3-1.3.4-1.9 1.6-8.8 2.6-11.9 3.7-12.2h.4c1.1.1 2.3 5.2 3.3 10.5z"/><path class="prefix__st4" d="M12.6 36.1h-7c1.1 0 2.2-4.8 3.3-10.3.8 1.1 1.4 3.1 2.2 6.6.8 3.5.2 3.7 1.5 3.7z"/></g><path class="prefix__st5" d="M8.9 25.8c-1.1 5.6-2.2 10.3-3.3 10.3-.1-.2-.9 0-1.6-4.3-.6-4-1.8-6.5-3.7-6.9h7c.6 0 1.1.3 1.6.9z"/></g></g></g></svg>