<svg xmlns="http://www.w3.org/2000/svg" viewBox="0 0 48 48" fill="#fff"><path d="M11.4 17.1h9v.7h-8.2v5.4h7.7v.7h-7.7v5.9h8.3v.7h-9.1V17.1zm9.8 0h1l4.3 5.9 4.3-5.9 5.9-7.5-9.7 14 5 6.9h-1l-4.6-6.3-4.6 6.3h-1l5-6.9-4.6-6.5zm11.1.7v-.7h10.3v.7h-4.7v12.7H37V17.8h-4.7zM.1 17.1h1l14.3 21.3-5.9-7.9L.9 18.1v12.4H.1zM42.5 29.6c.2 0 .3-.1.3-.3s-.1-.3-.3-.3c-.2 0-.3.1-.3.3s.2.3.3.3zm.8-.8c0 .5.4.8.9.8.6 0 .9-.3.9-.9v-2h-.5v2c0 .3-.2.5-.5.5s-.4-.2-.4-.4h-.4zm2.4 0c0 .5.5.8 1.1.8.7 0 1.1-.3 1.1-.9 0-.4-.2-.7-.8-.8l-.3-.1c-.4-.1-.5-.2-.5-.4 0-.3.2-.4.6-.4.3 0 .6.2.6.4h.4c0-.5-.5-.8-1-.8-.6 0-1.1.3-1.1.9 0 .4.2.7.8.8l.4.1c.4.1.6.2.6.4 0 .3-.3.4-.6.4-.4 0-.7-.2-.7-.4h-.6z"/></svg>