<svg xmlns="http://www.w3.org/2000/svg" viewBox="0 0 48 48"><path d="M24 47.9c-.7 0-1.3-.2-1.8-.5l-5.9-3.5c-.9-.5-.4-.7-.2-.7 1.2-.4 1.4-.5 2.6-1.2.1-.1.3 0 .4 0l4.5 2.7c.2.1.4.1.5 0l17.6-10.2c.2-.1.3-.3.3-.5V13.8c0-.2-.1-.4-.3-.5L24.2 3.2c-.2-.1-.4-.1-.5 0L6.1 13.3c-.2.1-.3.3-.3.5v20.3c0 .2.1.4.3.5l4.8 2.8c2.6 1.3 4.2-.2 4.2-1.8v-20c0-.3.2-.5.5-.5h2.2c.3 0 .5.2.5.5v20c0 3.5-1.9 5.5-5.2 5.5-1 0-1.8 0-4-1.1l-4.6-2.6c-1.1-.7-1.8-1.9-1.8-3.2V13.8c0-1.3.7-2.6 1.8-3.2L22.2.5c1.1-.6 2.6-.6 3.7 0l17.6 10.2c1.1.7 1.8 1.9 1.8 3.2v20.3c0 1.3-.7 2.6-1.8 3.2L25.8 47.5c-.5.3-1.2.4-1.8.4zM29.4 34c-7.7 0-9.3-3.5-9.3-6.5 0-.3.2-.5.5-.5h2.3c.3 0 .5.2.5.4.4 2.3 1.4 3.5 6 3.5 3.7 0 5.3-.8 5.3-2.8 0-1.1-.4-2-6.2-2.6-4.8-.5-7.8-1.5-7.8-5.4 0-3.6 3-5.7 8-5.7 5.6 0 8.4 1.9 8.8 6.2 0 .1 0 .3-.1.4-.1.1-.2.2-.4.2h-2.3c-.2 0-.4-.2-.5-.4-.5-2.4-1.9-3.2-5.5-3.2-4 0-4.5 1.4-4.5 2.5 0 1.3.6 1.7 6 2.4s8 1.7 8 5.5-3.2 6-8.8 6z" fill="#539e43"/></svg>