<svg xmlns="http://www.w3.org/2000/svg" viewBox="0 0 48 48"><path d="M24.6 0c-2 0-3.3.2-5 .5-4.9.8-5.7 2.6-5.7 5.9v5h11.4v2.5H8c-3.3 0-6.2 1.6-7.2 5.3-1 4.3-1.1 7 0 11.5.8 3.4 2.7 5.9 6 5.9h4.6v-6.4c0-3.7 3.4-7.4 7.3-7.4h9.1c3.2 0 6.3-2.4 6.3-5.5V6.4c0-3.1-2.2-5.4-5.3-5.9.1 0-2.2-.5-4.2-.5zm-6.3 5.1c1 0 1.9.9 1.9 1.9 0 1.1-.9 1.9-1.9 1.9-1.1 0-1.9-.8-1.9-1.9 0-1.1.9-1.9 1.9-1.9z" fill="#0277bd"/><path d="M23.4 48c2 0 3.3-.2 5-.5 4.9-.8 5.7-2.6 5.7-5.9v-5H22.7v-2.5H40c3.3 0 6.2-1.6 7.2-5.3 1-4.3 1.1-7 0-11.5-.8-3.4-2.7-5.9-6-5.9h-4.6v6.4c0 3.7-3.4 7.4-7.3 7.4h-9.1c-3.2 0-6.3 2.4-6.3 5.5v10.8c0 3.1 2.2 5.4 5.3 5.9-.1.1 2.2.6 4.2.6zm6.3-5.1c-1 0-1.9-.9-1.9-1.9 0-1.1.9-1.9 1.9-1.9 1.1 0 1.9.8 1.9 1.9 0 1.1-.9 1.9-1.9 1.9z" fill="#ffc107"/></svg>