<svg version="1.1" id="prefix__Layer_2_1_" xmlns="http://www.w3.org/2000/svg" x="0" y="0" viewBox="0 0 48 48" xml:space="preserve"><style>.prefix__st0{fill:#00d8ff}</style><circle class="prefix__st0" cx="24" cy="24" r="4.3"/><path class="prefix__st0" d="M24 33.8c-6 0-11.3-.7-15.3-2.1-2.6-.9-4.7-2-6.3-3.4C.8 27 0 25.4 0 24c0-2.8 3.1-5.6 8.3-7.4 4.3-1.5 9.9-2.3 15.7-2.3 5.7 0 11.2.8 15.5 2.3 2.5.9 4.6 2 6.1 3.2C47.2 21 48 22.5 48 24c0 3-3.5 5.9-9.1 7.8-3.9 1.3-9.2 2-14.9 2zm0-17.5c-5.5 0-11 .8-15 2.2-4.8 1.7-7 4-7 5.5 0 1.6 2.3 4.1 7.4 5.8 3.7 1.3 8.8 2 14.6 2 5.4 0 10.5-.7 14.3-1.9C43.6 28 46 25.5 46 24c0-.8-.6-1.8-1.7-2.7-1.3-1.1-3.2-2.1-5.4-2.8-4.1-1.5-9.4-2.2-14.9-2.2z"/><path class="prefix__st0" d="M14.3 45.4c-.9 0-1.6-.2-2.3-.6-2.5-1.4-3.3-5.5-2.3-10.9.8-4.5 2.9-9.7 5.8-14.8 2.9-5 6.3-9.3 9.7-12.3 2-1.7 4-3 5.8-3.7 2-.7 3.7-.7 4.9 0 2.6 1.5 3.4 6 2.2 11.8-.8 4.1-2.9 9.1-5.7 14-3 5.2-6.3 9.4-9.4 12.2-2 1.8-4.1 3.1-6.1 3.8-.9.3-1.8.5-2.6.5zm3-25.3c-2.8 4.8-4.8 9.9-5.6 14.1-1 5 0 8 1.3 8.8.3.2.8.3 1.3.3 1.7 0 4.4-1.1 7.5-3.8 3-2.6 6.1-6.6 9-11.7 2.7-4.7 4.7-9.5 5.5-13.4 1.1-5.5.2-8.8-1.2-9.6-.7-.4-1.8-.4-3.2.2-1.6.6-3.4 1.7-5.2 3.3-3.3 2.9-6.6 7.1-9.4 11.8"/><path class="prefix__st0" d="M33.7 45.4c-2.3 0-5.3-1.4-8.4-4.1-3.4-3-6.9-7.4-9.9-12.4-2.9-5-4.9-10.1-5.8-14.6-.5-2.6-.6-5-.3-6.9.4-2.1 1.2-3.6 2.5-4.3 2.6-1.5 6.9 0 11.3 4 3.1 2.8 6.4 7 9.3 11.9 3 5.2 5.1 10.1 5.9 14.2.5 2.7.6 5.1.2 7.1-.4 2.1-1.3 3.6-2.6 4.4-.6.5-1.3.7-2.2.7zM17.3 27.9c2.8 4.8 6.2 9.1 9.4 11.9 3.9 3.3 6.9 4 8.3 3.3 1.4-.8 2.4-4.1 1.3-9.3-.8-3.9-2.7-8.6-5.6-13.6-2.7-4.7-5.9-8.8-8.8-11.4-4.2-3.8-7.6-4.6-9-3.8-.7.4-1.2 1.4-1.5 2.9-.3 1.7-.2 3.8.3 6.1.8 4.1 2.8 9.1 5.6 13.9z"/></svg>