<svg version="1.1" id="prefix__Layer_1" xmlns="http://www.w3.org/2000/svg" x="0" y="0" viewBox="0 0 48 48" xml:space="preserve"><style>.prefix__st0{fill:#a41e11}.prefix__st1{fill:#d82c20}.prefix__st2{fill:#fff}</style><path class="prefix__st0" d="M46.1 35.1c-2.6 1.3-15.8 6.8-18.7 8.3-2.8 1.5-4.4 1.5-6.6.4-2.2-1.1-16.3-6.7-18.9-8C.7 35.2 0 34.7 0 34.2v-4.9s18.4-4 21.3-5.1c3-1.1 4-1.1 6.5-.2s17.6 3.6 20.1 4.6v4.8c.1.5-.5 1.1-1.8 1.7z"/><path class="prefix__st1" d="M46.1 30.3c-2.6 1.3-15.8 6.8-18.7 8.3S23 40 20.8 39 4.5 32.2 1.9 31c-2.5-1.2-2.6-2.1-.1-3 2.5-1 16.5-6.5 19.5-7.5 3-1.1 4-1.1 6.5-.2 2.5.9 15.7 6.2 18.2 7.1 2.6.8 2.7 1.6.1 2.9z"/><path class="prefix__st0" d="M46.1 27.3c-2.6 1.3-15.8 6.8-18.7 8.3-2.8 1.4-4.4 1.4-6.6.3-2.2-1.1-16.3-6.8-18.9-8C.7 27.3 0 26.8 0 26.3v-4.9s18.4-4 21.3-5.1c3-1.1 4-1.1 6.5-.2 2.5.9 17.6 3.6 20.1 4.6v4.8c.1.5-.5 1.1-1.8 1.8z"/><path class="prefix__st1" d="M46.1 22.4c-2.6 1.3-15.8 6.8-18.7 8.3-2.8 1.5-4.4 1.5-6.6.4C18.6 30 4.5 24.3 1.9 23c-2.6-1.2-2.6-2.1-.1-3 2.5-1 16.5-6.5 19.5-7.5 3-1.1 4-1.1 6.5-.2 2.5.9 15.7 6.2 18.2 7.1 2.6.9 2.7 1.7.1 3z"/><path class="prefix__st0" d="M46.1 19c-2.6 1.3-15.8 6.8-18.7 8.3-2.8 1.5-4.4 1.5-6.6.4-2.2-1-16.3-6.7-18.9-8-1.3-.6-2-1.1-2-1.6v-4.9s18.4-4 21.3-5.1c3-1.1 4-1.1 6.5-.2 2.5.9 17.6 3.6 20.1 4.6v4.8c.2.5-.4 1-1.7 1.7z"/><path class="prefix__st1" d="M46.1 14.2c-2.6 1.3-15.8 6.8-18.7 8.3-2.8 1.5-4.4 1.5-6.6.4-2.2-1.1-16.3-6.7-18.9-8s-2.6-2.1-.1-3c2.5-1 16.5-6.5 19.5-7.5 3-1.1 4-1.1 6.5-.2s15.7 6.2 18.2 7.1c2.6.8 2.7 1.6.1 2.9z"/><path class="prefix__st2" d="M30.3 9.5l-4.2.5-1 2.2-1.5-2.5-4.8-.4L22.5 8l-1.1-2 3.4 1.3 3.1-1-.8 2.1 3.2 1.1zM25 20.4l-7.8-3.2 11.1-1.7-3.3 4.9z"/><ellipse class="prefix__st2" cx="14.2" cy="13.1" rx="5.9" ry="2.3"/><path d="M35.2 10.1l6.6 2.6-6.6 2.6v-5.2z" fill="#7a0c00"/><path d="M27.9 13l7.3-2.9v5.2l-.7.3-6.6-2.6z" fill="#ad2115"/></svg>