<svg xmlns="http://www.w3.org/2000/svg" viewBox="0 0 48 48"><path fill="#fff" d="M47.7 23.4l-2-1.2c0-.2 0-.4-.1-.6l1.7-1.6c.2-.2.3-.4.2-.6 0-.2-.2-.4-.4-.5l-2.2-.9c-.1-.2-.1-.4-.2-.6l1.4-1.9c.1-.2.2-.4.1-.7-.1-.2-.3-.4-.5-.4l-2.4-.4c-.1-.2-.2-.4-.3-.5l1-2.2c.1-.2.1-.5-.1-.7-.1-.2-.4-.3-.6-.3l-2.3.1c-.1-.2-.2-.3-.4-.5l.5-2.3c.1-.2 0-.5-.2-.6-.2-.2-.4-.2-.6-.2l-2.3.6c-.1-.1-.3-.3-.5-.4l.1-2.4c0-.2-.1-.5-.3-.6-.2-.1-.5-.2-.7-.1l-2.2 1c-.2-.1-.3-.2-.5-.3l-.4-2.3c0-.2-.2-.4-.4-.5-.2-.1-.5-.1-.7.1l-1.9 1.4c-.2-.1-.4-.1-.6-.2L29.1.9c-.1-.2-.3-.4-.5-.4s-.5 0-.6.2l-1.6 1.7c-.2 0-.4 0-.6-.1l-1.2-2c-.1-.2-.4-.3-.6-.3-.2 0-.5.1-.6.3l-1.2 2c-.2 0-.4 0-.6.1L20 .7c-.2-.2-.4-.3-.6-.2-.2 0-.4.2-.5.4L18 3.1c-.2.1-.4.1-.6.2l-1.9-1.4c-.2-.1-.4-.2-.7-.1-.2.1-.4.3-.4.5L14 4.7c-.2.1-.4.2-.5.3l-2.2-1c-.2-.1-.5-.1-.7.1-.2.1-.3.4-.3.6l.1 2.3c-.2.1-.3.2-.5.4l-2.2-.6c-.3 0-.5.1-.7.2-.1.2-.2.4-.2.7l.6 2.3c-.1.1-.3.3-.4.5l-2.4-.1c-.2 0-.5.1-.6.3-.1.2-.2.5-.1.7l1 2.2c-.1.2-.2.3-.3.5l-2.3.4c-.2 0-.4.2-.5.4-.1.2-.1.5.1.7l1.4 1.9c-.1.2-.1.4-.2.6l-2.2.8c-.2.1-.4.3-.4.5s0 .5.2.6l1.7 1.6c0 .2 0 .4-.1.6l-2 1.2c-.2.1-.3.4-.3.6 0 .2.1.5.3.6l2 1.2c0 .2 0 .4.1.6L.7 28c-.2.2-.3.4-.2.6 0 .2.2.4.4.5l2.2.9c.1.2.1.4.2.6l-1.4 1.9c-.1.2-.2.4-.1.7.1.2.3.4.5.4l2.4.4c.1.2.2.4.3.5l-1 2.2c-.1.2-.1.5.1.7.1.2.4.3.6.3l2.3-.1c.1.2.2.3.4.5l-.5 2.3c-.1.2 0 .5.2.6.2.2.4.2.6.2l2.3-.5c.1.1.3.3.5.4l-.1 2.4c0 .2.1.5.3.6.2.1.5.2.7.1l2.2-1c.2.1.3.2.5.3l.4 2.3c0 .2.2.4.4.5.2.1.5.1.7-.1l1.9-1.4c.2.1.4.1.6.2l.8 2.2c.1.2.3.4.5.4s.5 0 .6-.2l1.6-1.7c.2 0 .4 0 .6.1l1.2 2c.1.2.3.3.6.3s.5-.1.6-.3l1.2-2c.2 0 .4 0 .6-.1l1.6 1.7c.2.2.4.3.6.2.2 0 .4-.2.5-.4l.8-2.2c.2-.1.4-.1.6-.2l1.9 1.4c.2.1.4.2.7.1.2-.1.4-.3.4-.5l.4-2.3c.2-.1.4-.2.5-.3l2.2 1c.2.1.5.1.7-.1.2-.1.3-.4.3-.6V41c.2-.1.3-.2.5-.4l2.3.5c.2.1.5 0 .6-.2.2-.2.2-.4.2-.6l-.6-2.3c.1-.1.3-.3.4-.5l2.4.1c.2 0 .5-.1.6-.3.1-.2.2-.5.1-.7l-1-2.2c.1-.2.2-.3.3-.5l2.3-.4c.2 0 .4-.2.5-.4.1-.2.1-.5-.1-.7l-1.4-1.9c.1-.2.1-.4.2-.6l2.2-.8c.2-.1.4-.3.4-.5s0-.5-.2-.6l-1.7-1.6c0-.2 0-.4.1-.6l2-1.2c.2-.1.3-.3.3-.6 0-.2-.1-.5-.3-.6zM34.2 40.1c-.8-.2-1.3-.9-1.1-1.7.2-.8.9-1.3 1.7-1.1.8.2 1.3.9 1.1 1.7s-.9 1.3-1.7 1.1zm-.7-4.6c-.7-.2-1.4.3-1.5 1l-.7 3.3c-2.2 1-4.7 1.6-7.2 1.6-2.6 0-5.1-.6-7.4-1.6l-.7-3.3c-.2-.7-.8-1.2-1.5-1l-2.9.6c-.5-.6-1.1-1.2-1.5-1.8h14.3c.2 0 .3 0 .3-.2V29c0-.1-.1-.2-.3-.2H20v-3.2h4.5c.4 0 2.2.1 2.8 2.4.2.7.6 3 .8 3.7.3.8 1.4 2.5 2.5 2.5H38c-.5.7-1 1.3-1.6 1.9.1 0-2.9-.6-2.9-.6zm-19.8 4.6c-.8.2-1.5-.3-1.7-1.1-.2-.8.3-1.5 1.1-1.7.8-.2 1.5.3 1.7 1.1.1.7-.4 1.5-1.1 1.7zM8.2 18c.3.7 0 1.6-.7 1.9-.7.3-1.6 0-1.9-.7-.3-.7 0-1.6.7-1.9.8-.3 1.6 0 1.9.7zm-1.6 4l3.1-1.4c.7-.3 1-1.1.7-1.7l-.6-1.4h2.5v11.2h-5c-.4-1.5-.7-3.1-.7-4.8-.1-.7-.1-1.3 0-1.9zM20 20.9v-3.3h5.9c.3 0 2.2.4 2.2 1.7 0 1.2-1.4 1.6-2.6 1.6H20zm21.5 2.9v1.3h-1.8c-.2 0-.3.1-.3.3v.8c0 1.9-1.1 2.4-2.1 2.5-.9.1-1.9-.4-2.1-.9-.5-3-1.4-3.7-2.9-4.8 1.8-1.1 3.6-2.8 3.6-5 0-2.4-1.6-3.9-2.8-4.6-1.6-1-3.3-1.2-3.8-1.2H10.9c2.5-2.8 5.9-4.8 9.8-5.5L22.9 9c.5.5 1.3.5 1.8 0l2.5-2.3c5.1 1 9.5 4.2 12 8.6l-1.7 3.8c-.3.7 0 1.4.7 1.7l3.2 1.4c.1.5.1 1.1.1 1.6zM22.9 4.6c.6-.5 1.5-.5 2 0 .5.6.5 1.5 0 2-.6.5-1.5.5-2 0s-.5-1.4 0-2zm16.7 13.5c.3-.7 1.2-1 1.9-.7.7.3 1 1.2.7 1.9-.3.7-1.2 1-1.9.7-.7-.4-1-1.2-.7-1.9z"/></svg>