<svg xmlns="http://www.w3.org/2000/svg" viewBox="0 0 48 48"><linearGradient id="prefix__a" gradientUnits="userSpaceOnUse" x1="0" y1="63.889" x2="48" y2="-16.11" gradientTransform="matrix(1 0 0 -1 0 47.89)"><stop offset="0" stop-color="#2383ae"/><stop offset="1" stop-color="#6dd7b9"/></linearGradient><path d="M12 19.2c1.6-6.4 5.6-9.6 12-9.6 9.6 0 10.8 7.2 15.6 8.4 3.2.8 6-.4 8.4-3.6-1.6 6.4-5.6 9.6-12 9.6-9.6 0-10.8-7.2-15.6-8.4-3.2-.8-6 .4-8.4 3.6zM0 33.6C1.6 27.2 5.6 24 12 24c9.6 0 10.8 7.2 15.6 8.4 3.2.8 6-.4 8.4-3.6-1.6 6.4-5.6 9.6-12 9.6-9.6 0-10.8-7.2-15.6-8.4-3.2-.8-6 .4-8.4 3.6z" fill-rule="evenodd" clip-rule="evenodd" fill="url(#prefix__a)"/></svg>