<svg xmlns="http://www.w3.org/2000/svg" viewBox="0 0 48 48"><path d="M20.8 25.9l6.5-3.8 6.4 3.8-6.4 3.7-6.5-3.7zM1.3 14.7L27.3 0l19.3 10.9L40.2 22l-12.9-7.3-19.4 11-6.6-11z" fill="#f6bd3a"/><path d="M20.8 40.6v-7.4l6.4-3.7 6.5-3.7v7.4l-6.4 3.7v7.4L20.8 48v-7.4zm0-14.7l-6.5-3.7-6.5 3.6v-7.3L27.3 7.3V22l-6.5 3.9zm19.3-7.5v-3.7l6.4-3.8.1 7.4-6.5 3.7v-3.6z" fill="#eb8c23"/><path d="M14.3 44.1v-22l6.4-3.6.1 7.3 6.5 3.6v7.4l-6.5-3.5V48l-6.5-3.9zM4.6 23.8l-3.2-2v-7.2l6.4 3.7v7.4l-3.2-1.9zm22.7-9.1V7.3l12.8 7.3.1 7.4-12.9-7.3z" fill="#e35a2b"/></svg>